<svg width="795" height="795" viewBox="0 0 795 795" fill="none" xmlns="http://www.w3.org/2000/svg">
<circle cx="397.5" cy="397.5" r="397.5" fill="#E7DE18"/>
<circle cx="397.5" cy="397.5" r="265" fill="white"/>
<circle cx="397.5" cy="397.5" r="53" fill="#1241E9"/>
<path d="M297.88 508L296.28 502.688H288.824L287.224 508H282.296L289.656 485.664H295.672L302.936 508H297.88ZM292.6 490.08H292.44L289.976 498.56H295.096L292.6 490.08ZM304.293 504.32H306.469C306.682 504.043 306.863 503.691 307.013 503.264C307.183 502.837 307.322 502.325 307.429 501.728C307.557 501.109 307.653 500.373 307.717 499.52C307.781 498.667 307.812 497.664 307.812 496.512V491.2H321.157V508H316.421V494.88H312.357V496.768C312.357 498.219 312.303 499.499 312.197 500.608C312.09 501.696 311.93 502.645 311.717 503.456C311.503 504.245 311.247 504.917 310.949 505.472C310.671 506.005 310.362 506.443 310.021 506.784C309.509 507.296 308.911 507.659 308.229 507.872C307.567 508.085 306.735 508.192 305.733 508.192H304.293V504.32ZM323.855 504.32H326.031C326.244 504.043 326.426 503.691 326.575 503.264C326.746 502.837 326.884 502.325 326.991 501.728C327.119 501.109 327.215 500.373 327.279 499.52C327.343 498.667 327.375 497.664 327.375 496.512V491.2H340.719V508H335.983V494.88H331.919V496.768C331.919 498.219 331.866 499.499 331.759 500.608C331.652 501.696 331.492 502.645 331.279 503.456C331.066 504.245 330.81 504.917 330.511 505.472C330.234 506.005 329.924 506.443 329.583 506.784C329.071 507.296 328.474 507.659 327.791 507.872C327.13 508.085 326.298 508.192 325.295 508.192H323.855V504.32ZM357.562 508C356.708 508 355.994 507.733 355.418 507.2C354.863 506.667 354.511 505.952 354.362 505.056H354.17C353.914 506.144 353.348 506.976 352.474 507.552C351.599 508.107 350.522 508.384 349.242 508.384C347.556 508.384 346.266 507.936 345.37 507.04C344.474 506.144 344.026 504.96 344.026 503.488C344.026 501.717 344.666 500.405 345.946 499.552C347.247 498.677 349.007 498.24 351.226 498.24H353.882V497.184C353.882 496.373 353.668 495.733 353.242 495.264C352.815 494.773 352.1 494.528 351.098 494.528C350.159 494.528 349.412 494.731 348.858 495.136C348.303 495.541 347.844 496 347.482 496.512L344.666 494.016C345.348 493.013 346.202 492.235 347.226 491.68C348.271 491.104 349.679 490.816 351.45 490.816C353.839 490.816 355.631 491.339 356.826 492.384C358.02 493.429 358.618 494.955 358.618 496.96V504.32H360.186V508H357.562ZM351.002 505.088C351.791 505.088 352.463 504.917 353.018 504.576C353.594 504.235 353.882 503.68 353.882 502.912V500.928H351.578C349.722 500.928 348.794 501.557 348.794 502.816V503.296C348.794 503.915 348.986 504.373 349.37 504.672C349.754 504.949 350.298 505.088 351.002 505.088ZM371.183 485.664H388.943V508H384.079V489.984H376.047V508H371.183V485.664ZM403.886 491.2H408.302L401.838 510.592C401.412 511.893 400.804 512.853 400.014 513.472C399.246 514.091 398.137 514.4 396.686 514.4H393.742V510.72H396.91L397.486 508.864L391.598 491.2H396.302L398.766 499.04L399.982 503.904H400.174L401.422 499.04L403.886 491.2ZM410.708 491.2H422.068V494.88H415.444V508H410.708V491.2ZM437.187 508C436.333 508 435.619 507.733 435.043 507.2C434.488 506.667 434.136 505.952 433.987 505.056H433.795C433.539 506.144 432.973 506.976 432.099 507.552C431.224 508.107 430.147 508.384 428.867 508.384C427.181 508.384 425.891 507.936 424.995 507.04C424.099 506.144 423.651 504.96 423.651 503.488C423.651 501.717 424.291 500.405 425.571 499.552C426.872 498.677 428.632 498.24 430.851 498.24H433.507V497.184C433.507 496.373 433.293 495.733 432.867 495.264C432.44 494.773 431.725 494.528 430.723 494.528C429.784 494.528 429.037 494.731 428.483 495.136C427.928 495.541 427.469 496 427.107 496.512L424.291 494.016C424.973 493.013 425.827 492.235 426.851 491.68C427.896 491.104 429.304 490.816 431.075 490.816C433.464 490.816 435.256 491.339 436.451 492.384C437.645 493.429 438.243 494.955 438.243 496.96V504.32H439.811V508H437.187ZM430.627 505.088C431.416 505.088 432.088 504.917 432.643 504.576C433.219 504.235 433.507 503.68 433.507 502.912V500.928H431.203C429.347 500.928 428.419 501.557 428.419 502.816V503.296C428.419 503.915 428.611 504.373 428.995 504.672C429.379 504.949 429.923 505.088 430.627 505.088ZM451.771 500.864H451.611C451.227 501.547 450.672 502.091 449.947 502.496C449.243 502.88 448.347 503.072 447.259 503.072C445.36 503.072 443.973 502.581 443.099 501.6C442.245 500.619 441.819 499.115 441.819 497.088V491.2H446.555V496.864C446.555 497.696 446.747 498.304 447.131 498.688C447.536 499.051 448.187 499.232 449.083 499.232C449.979 499.232 450.651 499.072 451.099 498.752C451.547 498.432 451.771 498.027 451.771 497.536V491.2H456.507V508H451.771V500.864ZM467.935 508.384C466.655 508.384 465.513 508.181 464.511 507.776C463.508 507.349 462.655 506.763 461.951 506.016C461.268 505.248 460.745 504.32 460.383 503.232C460.041 502.144 459.871 500.928 459.871 499.584C459.871 498.261 460.041 497.067 460.383 496C460.724 494.912 461.225 493.984 461.887 493.216C462.569 492.448 463.401 491.861 464.383 491.456C465.364 491.029 466.484 490.816 467.743 490.816C469.129 490.816 470.313 491.051 471.295 491.52C472.297 491.989 473.108 492.619 473.727 493.408C474.367 494.197 474.825 495.115 475.103 496.16C475.401 497.184 475.551 498.261 475.551 499.392V500.8H464.767V501.056C464.767 502.165 465.065 503.051 465.663 503.712C466.26 504.352 467.199 504.672 468.479 504.672C469.46 504.672 470.26 504.48 470.879 504.096C471.497 503.691 472.073 503.211 472.607 502.656L474.975 505.6C474.228 506.475 473.247 507.157 472.031 507.648C470.836 508.139 469.471 508.384 467.935 508.384ZM467.839 494.304C466.879 494.304 466.121 494.624 465.567 495.264C465.033 495.883 464.767 496.715 464.767 497.76V498.016H470.655V497.728C470.655 496.704 470.42 495.883 469.951 495.264C469.503 494.624 468.799 494.304 467.839 494.304ZM478.896 491.2H488.464C490 491.2 491.173 491.584 491.984 492.352C492.794 493.12 493.2 494.144 493.2 495.424C493.2 496.512 492.912 497.355 492.336 497.952C491.76 498.549 490.864 498.933 489.648 499.104V499.264C492.442 499.52 493.84 500.811 493.84 503.136C493.84 504.629 493.37 505.813 492.432 506.688C491.493 507.563 490.192 508 488.528 508H478.896V491.2ZM487.664 504.64C488.09 504.64 488.432 504.523 488.688 504.288C488.944 504.053 489.072 503.723 489.072 503.296V502.304C489.072 501.877 488.944 501.547 488.688 501.312C488.432 501.056 488.09 500.928 487.664 500.928H483.504V504.64H487.664ZM487.088 498.112C487.514 498.112 487.845 497.995 488.08 497.76C488.314 497.525 488.432 497.195 488.432 496.768V495.904C488.432 495.477 488.314 495.147 488.08 494.912C487.845 494.677 487.514 494.56 487.088 494.56H483.504V498.112H487.088ZM509.749 508C508.896 508 508.181 507.733 507.605 507.2C507.05 506.667 506.698 505.952 506.549 505.056H506.357C506.101 506.144 505.536 506.976 504.661 507.552C503.786 508.107 502.709 508.384 501.429 508.384C499.744 508.384 498.453 507.936 497.557 507.04C496.661 506.144 496.213 504.96 496.213 503.488C496.213 501.717 496.853 500.405 498.133 499.552C499.434 498.677 501.194 498.24 503.413 498.24H506.069V497.184C506.069 496.373 505.856 495.733 505.429 495.264C505.002 494.773 504.288 494.528 503.285 494.528C502.346 494.528 501.6 494.731 501.045 495.136C500.49 495.541 500.032 496 499.669 496.512L496.853 494.016C497.536 493.013 498.389 492.235 499.413 491.68C500.458 491.104 501.866 490.816 503.637 490.816C506.026 490.816 507.818 491.339 509.013 492.384C510.208 493.429 510.805 494.955 510.805 496.96V504.32H512.373V508H509.749ZM503.189 505.088C503.978 505.088 504.65 504.917 505.205 504.576C505.781 504.235 506.069 503.68 506.069 502.912V500.928H503.765C501.909 500.928 500.981 501.557 500.981 502.816V503.296C500.981 503.915 501.173 504.373 501.557 504.672C501.941 504.949 502.485 505.088 503.189 505.088ZM243.585 526.664H259.809V549H257.121V529.032H246.273V549H243.585V526.664ZM271.757 549.384C270.648 549.384 269.634 549.181 268.717 548.776C267.8 548.371 267.01 547.795 266.349 547.048C265.709 546.28 265.208 545.373 264.845 544.328C264.482 543.261 264.301 542.067 264.301 540.744C264.301 539.443 264.482 538.259 264.845 537.192C265.208 536.125 265.709 535.219 266.349 534.472C267.01 533.704 267.8 533.117 268.717 532.712C269.634 532.307 270.648 532.104 271.757 532.104C272.866 532.104 273.869 532.307 274.765 532.712C275.682 533.117 276.472 533.704 277.133 534.472C277.794 535.219 278.306 536.125 278.669 537.192C279.032 538.259 279.213 539.443 279.213 540.744C279.213 542.067 279.032 543.261 278.669 544.328C278.306 545.373 277.794 546.28 277.133 547.048C276.472 547.795 275.682 548.371 274.765 548.776C273.869 549.181 272.866 549.384 271.757 549.384ZM271.757 547.112C273.144 547.112 274.274 546.685 275.149 545.832C276.024 544.979 276.461 543.677 276.461 541.928V539.56C276.461 537.811 276.024 536.509 275.149 535.656C274.274 534.803 273.144 534.376 271.757 534.376C270.37 534.376 269.24 534.803 268.365 535.656C267.49 536.509 267.053 537.811 267.053 539.56V541.928C267.053 543.677 267.49 544.979 268.365 545.832C269.24 546.685 270.37 547.112 271.757 547.112ZM287.876 549.384C286.191 549.384 284.847 549.096 283.844 548.52C282.842 547.944 282.02 547.123 281.38 546.056L283.3 544.52C283.727 545.331 284.314 545.971 285.06 546.44C285.828 546.888 286.767 547.112 287.876 547.112C289.22 547.112 290.212 546.867 290.852 546.376C291.514 545.885 291.844 545.256 291.844 544.488V544.104C291.844 543.272 291.556 542.643 290.98 542.216C290.426 541.768 289.636 541.544 288.612 541.544H285.092V539.4H288.292C289.316 539.4 290.106 539.197 290.66 538.792C291.215 538.387 291.492 537.811 291.492 537.064V536.68C291.492 535.976 291.204 535.421 290.628 535.016C290.074 534.589 289.135 534.376 287.812 534.376C286.724 534.376 285.828 534.6 285.124 535.048C284.42 535.475 283.855 536.061 283.428 536.808L281.732 535.368C282.244 534.408 282.991 533.629 283.972 533.032C284.975 532.413 286.298 532.104 287.94 532.104C290.095 532.104 291.684 532.499 292.708 533.288C293.732 534.077 294.244 535.165 294.244 536.552C294.244 537.576 293.967 538.387 293.412 538.984C292.879 539.581 292.1 539.997 291.076 540.232V540.36C292.25 540.531 293.124 540.957 293.7 541.64C294.298 542.301 294.596 543.155 294.596 544.2C294.596 545.8 293.988 547.069 292.772 548.008C291.578 548.925 289.946 549.384 287.876 549.384ZM305.476 549.384C304.366 549.384 303.353 549.181 302.436 548.776C301.518 548.371 300.729 547.795 300.068 547.048C299.428 546.28 298.926 545.373 298.564 544.328C298.201 543.261 298.02 542.067 298.02 540.744C298.02 539.443 298.201 538.259 298.564 537.192C298.926 536.125 299.428 535.219 300.068 534.472C300.729 533.704 301.518 533.117 302.436 532.712C303.353 532.307 304.366 532.104 305.476 532.104C306.585 532.104 307.588 532.307 308.484 532.712C309.401 533.117 310.19 533.704 310.852 534.472C311.513 535.219 312.025 536.125 312.388 537.192C312.75 538.259 312.932 539.443 312.932 540.744C312.932 542.067 312.75 543.261 312.388 544.328C312.025 545.373 311.513 546.28 310.852 547.048C310.19 547.795 309.401 548.371 308.484 548.776C307.588 549.181 306.585 549.384 305.476 549.384ZM305.476 547.112C306.862 547.112 307.993 546.685 308.868 545.832C309.742 544.979 310.18 543.677 310.18 541.928V539.56C310.18 537.811 309.742 536.509 308.868 535.656C307.993 534.803 306.862 534.376 305.476 534.376C304.089 534.376 302.958 534.803 302.084 535.656C301.209 536.509 300.772 537.811 300.772 539.56V541.928C300.772 543.677 301.209 544.979 302.084 545.832C302.958 546.685 304.089 547.112 305.476 547.112ZM317.142 532.488H325.462C326.806 532.488 327.862 532.872 328.63 533.64C329.398 534.387 329.782 535.4 329.782 536.68C329.782 538.749 328.705 539.912 326.55 540.168V540.296C327.83 540.403 328.779 540.808 329.398 541.512C330.038 542.195 330.358 543.048 330.358 544.072C330.358 544.733 330.251 545.363 330.038 545.96C329.846 546.557 329.558 547.08 329.174 547.528C328.79 547.976 328.321 548.339 327.766 548.616C327.211 548.872 326.582 549 325.878 549H317.142V532.488ZM325.11 546.888C325.878 546.888 326.486 546.685 326.934 546.28C327.382 545.875 327.606 545.299 327.606 544.552V543.816C327.606 543.069 327.382 542.493 326.934 542.088C326.486 541.683 325.878 541.48 325.11 541.48H319.702V546.888H325.11ZM324.79 539.4C325.494 539.4 326.038 539.229 326.422 538.888C326.827 538.525 327.03 538.013 327.03 537.352V536.648C327.03 535.987 326.827 535.485 326.422 535.144C326.038 534.781 325.494 534.6 324.79 534.6H319.702V539.4H324.79ZM334.986 532.488H337.482V541.64L337.226 545.608H337.354L339.402 542.088L345.994 532.488H348.362V549H345.866V539.848L346.122 535.88H345.994L343.946 539.4L337.354 549H334.986V532.488ZM361.361 532.488H364.721L369.745 541.064H369.873L374.865 532.488H378.193V549H375.697V535.56H375.537L374.609 537.352L369.777 545.544L364.945 537.352L364.017 535.56H363.857V549H361.361V532.488ZM389.85 549.384C388.719 549.384 387.695 549.181 386.778 548.776C385.882 548.371 385.103 547.795 384.442 547.048C383.802 546.28 383.301 545.373 382.938 544.328C382.597 543.261 382.426 542.067 382.426 540.744C382.426 539.443 382.597 538.259 382.938 537.192C383.301 536.125 383.802 535.219 384.442 534.472C385.103 533.704 385.882 533.117 386.778 532.712C387.695 532.307 388.719 532.104 389.85 532.104C390.959 532.104 391.951 532.307 392.826 532.712C393.701 533.117 394.447 533.683 395.066 534.408C395.685 535.112 396.154 535.955 396.474 536.936C396.815 537.917 396.986 538.995 396.986 540.168V541.384H385.114V542.152C385.114 542.856 385.221 543.517 385.434 544.136C385.669 544.733 385.989 545.256 386.394 545.704C386.821 546.152 387.333 546.504 387.93 546.76C388.549 547.016 389.242 547.144 390.01 547.144C391.055 547.144 391.962 546.899 392.73 546.408C393.519 545.917 394.127 545.213 394.554 544.296L396.378 545.608C395.845 546.739 395.013 547.656 393.882 548.36C392.751 549.043 391.407 549.384 389.85 549.384ZM389.85 534.248C389.146 534.248 388.506 534.376 387.93 534.632C387.354 534.867 386.853 535.208 386.426 535.656C386.021 536.104 385.701 536.637 385.466 537.256C385.231 537.853 385.114 538.515 385.114 539.24V539.464H394.234V539.112C394.234 537.64 393.829 536.467 393.018 535.592C392.229 534.696 391.173 534.248 389.85 534.248ZM401.204 532.488H403.764V539.368H412.02V532.488H414.58V549H412.02V541.608H403.764V549H401.204V532.488ZM418.545 546.76H420.369L421.425 544.328C421.66 543.773 421.948 543.357 422.289 543.08C422.63 542.781 423.014 542.6 423.441 542.536V542.408C421.969 542.28 420.86 541.8 420.113 540.968C419.366 540.136 418.993 539.016 418.993 537.608C418.993 536.008 419.473 534.76 420.433 533.864C421.393 532.947 422.716 532.488 424.401 532.488H431.697V549H429.137V542.664H424.849L423.121 546.728C422.737 547.624 422.31 548.232 421.841 548.552C421.393 548.851 420.881 549 420.305 549H418.545V546.76ZM429.137 540.488V534.728H424.785C423.825 534.728 423.078 534.909 422.545 535.272C422.012 535.635 421.745 536.243 421.745 537.096V538.152C421.745 539.005 422.012 539.613 422.545 539.976C423.078 540.317 423.825 540.488 424.785 540.488H429.137ZM450.848 549.384C449.696 549.384 448.662 549.181 447.744 548.776C446.827 548.371 446.048 547.795 445.408 547.048C444.79 546.301 444.31 545.395 443.968 544.328C443.648 543.261 443.488 542.067 443.488 540.744C443.488 539.421 443.648 538.227 443.968 537.16C444.31 536.093 444.79 535.187 445.408 534.44C446.048 533.693 446.827 533.117 447.744 532.712C448.662 532.307 449.696 532.104 450.848 532.104C452.491 532.104 453.803 532.467 454.784 533.192C455.787 533.896 456.534 534.824 457.024 535.976L454.88 537.064C454.582 536.211 454.091 535.549 453.408 535.08C452.726 534.611 451.872 534.376 450.848 534.376C450.08 534.376 449.408 534.504 448.832 534.76C448.256 534.995 447.776 535.336 447.392 535.784C447.008 536.211 446.72 536.733 446.528 537.352C446.336 537.949 446.24 538.611 446.24 539.336V542.152C446.24 543.603 446.624 544.797 447.392 545.736C448.182 546.653 449.334 547.112 450.848 547.112C452.918 547.112 454.411 546.152 455.328 544.232L457.184 545.48C456.651 546.675 455.851 547.624 454.784 548.328C453.739 549.032 452.427 549.384 450.848 549.384ZM474.505 549.384C473.353 549.384 472.318 549.181 471.401 548.776C470.483 548.371 469.705 547.795 469.065 547.048C468.446 546.301 467.966 545.395 467.625 544.328C467.305 543.261 467.145 542.067 467.145 540.744C467.145 539.421 467.305 538.227 467.625 537.16C467.966 536.093 468.446 535.187 469.065 534.44C469.705 533.693 470.483 533.117 471.401 532.712C472.318 532.307 473.353 532.104 474.505 532.104C476.147 532.104 477.459 532.467 478.441 533.192C479.443 533.896 480.19 534.824 480.681 535.976L478.537 537.064C478.238 536.211 477.747 535.549 477.065 535.08C476.382 534.611 475.529 534.376 474.505 534.376C473.737 534.376 473.065 534.504 472.489 534.76C471.913 534.995 471.433 535.336 471.049 535.784C470.665 536.211 470.377 536.733 470.185 537.352C469.993 537.949 469.897 538.611 469.897 539.336V542.152C469.897 543.603 470.281 544.797 471.049 545.736C471.838 546.653 472.99 547.112 474.505 547.112C476.574 547.112 478.067 546.152 478.985 544.232L480.841 545.48C480.307 546.675 479.507 547.624 478.441 548.328C477.395 549.032 476.083 549.384 474.505 549.384ZM490.507 549.384C489.398 549.384 488.384 549.181 487.467 548.776C486.55 548.371 485.76 547.795 485.099 547.048C484.459 546.28 483.958 545.373 483.595 544.328C483.232 543.261 483.051 542.067 483.051 540.744C483.051 539.443 483.232 538.259 483.595 537.192C483.958 536.125 484.459 535.219 485.099 534.472C485.76 533.704 486.55 533.117 487.467 532.712C488.384 532.307 489.398 532.104 490.507 532.104C491.616 532.104 492.619 532.307 493.515 532.712C494.432 533.117 495.222 533.704 495.883 534.472C496.544 535.219 497.056 536.125 497.419 537.192C497.782 538.259 497.963 539.443 497.963 540.744C497.963 542.067 497.782 543.261 497.419 544.328C497.056 545.373 496.544 546.28 495.883 547.048C495.222 547.795 494.432 548.371 493.515 548.776C492.619 549.181 491.616 549.384 490.507 549.384ZM490.507 547.112C491.894 547.112 493.024 546.685 493.899 545.832C494.774 544.979 495.211 543.677 495.211 541.928V539.56C495.211 537.811 494.774 536.509 493.899 535.656C493.024 534.803 491.894 534.376 490.507 534.376C489.12 534.376 487.99 534.803 487.115 535.656C486.24 536.509 485.803 537.811 485.803 539.56V541.928C485.803 543.677 486.24 544.979 487.115 545.832C487.99 546.685 489.12 547.112 490.507 547.112ZM508.697 549.384C507.545 549.384 506.511 549.192 505.593 548.808C504.676 548.424 503.897 547.827 503.257 547.016C502.617 546.205 502.116 545.16 501.753 543.88C501.412 542.579 501.241 541.011 501.241 539.176C501.241 536.808 501.391 534.781 501.689 533.096C502.009 531.411 502.511 530.024 503.193 528.936C503.876 527.848 504.74 527.037 505.785 526.504C506.852 525.949 508.143 525.608 509.657 525.48L514.841 525.064V527.656L509.337 528.104C508.399 528.189 507.609 528.371 506.969 528.648C506.329 528.925 505.796 529.363 505.369 529.96C504.964 530.536 504.644 531.304 504.409 532.264C504.196 533.224 504.036 534.419 503.929 535.848H504.057C504.548 534.717 505.177 533.875 505.945 533.32C506.735 532.765 507.769 532.488 509.049 532.488C510.095 532.488 511.055 532.68 511.929 533.064C512.804 533.448 513.551 534.003 514.169 534.728C514.788 535.432 515.268 536.317 515.609 537.384C515.972 538.429 516.153 539.624 516.153 540.968C516.153 542.227 515.972 543.368 515.609 544.392C515.247 545.416 514.735 546.301 514.073 547.048C513.412 547.795 512.623 548.371 511.705 548.776C510.809 549.181 509.807 549.384 508.697 549.384ZM508.825 547.112C509.487 547.112 510.095 547.005 510.649 546.792C511.204 546.579 511.684 546.259 512.089 545.832C512.495 545.405 512.815 544.883 513.049 544.264C513.284 543.645 513.401 542.92 513.401 542.088V540.072C513.401 538.28 512.964 536.947 512.089 536.072C511.215 535.197 510.041 534.76 508.569 534.76C507.033 534.76 505.881 535.144 505.113 535.912C504.367 536.659 503.993 537.64 503.993 538.856V541.8C503.993 543.592 504.431 544.925 505.305 545.8C506.18 546.675 507.353 547.112 508.825 547.112ZM526.632 549.384C525.523 549.384 524.509 549.181 523.592 548.776C522.675 548.371 521.885 547.795 521.224 547.048C520.584 546.28 520.083 545.373 519.72 544.328C519.357 543.261 519.176 542.067 519.176 540.744C519.176 539.443 519.357 538.259 519.72 537.192C520.083 536.125 520.584 535.219 521.224 534.472C521.885 533.704 522.675 533.117 523.592 532.712C524.509 532.307 525.523 532.104 526.632 532.104C527.741 532.104 528.744 532.307 529.64 532.712C530.557 533.117 531.347 533.704 532.008 534.472C532.669 535.219 533.181 536.125 533.544 537.192C533.907 538.259 534.088 539.443 534.088 540.744C534.088 542.067 533.907 543.261 533.544 544.328C533.181 545.373 532.669 546.28 532.008 547.048C531.347 547.795 530.557 548.371 529.64 548.776C528.744 549.181 527.741 549.384 526.632 549.384ZM526.632 547.112C528.019 547.112 529.149 546.685 530.024 545.832C530.899 544.979 531.336 543.677 531.336 541.928V539.56C531.336 537.811 530.899 536.509 530.024 535.656C529.149 534.803 528.019 534.376 526.632 534.376C525.245 534.376 524.115 534.803 523.24 535.656C522.365 536.509 521.928 537.811 521.928 539.56V541.928C521.928 543.677 522.365 544.979 523.24 545.832C524.115 546.685 525.245 547.112 526.632 547.112ZM538.298 532.488H540.794V541.64L540.538 545.608H540.666L542.714 542.088L549.306 532.488H551.674V549H549.178V539.848L549.434 535.88H549.306L547.258 539.4L540.666 549H538.298V532.488ZM545.05 529.928C543.898 529.928 542.981 529.704 542.298 529.256C541.615 528.787 541.071 528.179 540.666 527.432L540.026 526.216L542.266 525.224L543.386 527.848C543.642 527.912 543.919 527.965 544.218 528.008C544.517 528.029 544.794 528.04 545.05 528.04C545.306 528.04 545.583 528.029 545.882 528.008C546.181 527.965 546.458 527.912 546.714 527.848L547.834 525.224L550.074 526.216L549.434 527.432C549.029 528.179 548.485 528.787 547.802 529.256C547.119 529.704 546.202 529.928 545.05 529.928Z" fill="black"/>
</svg>
